<svg xmlns="http://www.w3.org/2000/svg" viewBox="0 0 1800 400" fill="none" role="img" aria-labelledby="title desc">
  <title id="title">Ida Event Partners We Got You logo</title>
  <desc id="desc">Transparent IEP logo with a larger emblem on the left and a larger We Got You wordmark on the right.</desc>

  <g transform="translate(360 182) scale(0.86 0.58)">
    <path
      d="M-126 -102
         C-126 -122 -110 -138 -90 -138
         H-70
         C-66 -172 -38 -198 0 -198
         C38 -198 66 -172 70 -138
         H90
         C110 -138 126 -122 126 -102
         V-82
         C160 -58 180 -24 180 16
         C180 56 160 90 126 114
         V134
         C126 154 110 170 90 170
         H70
         C66 204 38 230 0 230
         C-38 230 -66 204 -70 170
         H-90
         C-110 170 -126 154 -126 134
         V114
         C-160 90 -180 56 -180 16
         C-180 -24 -160 -58 -126 -82
         Z"
      fill="#2a1810"
      stroke="#3d2418"
      stroke-width="26"
      stroke-linejoin="round"
    />
    <path
      d="M-126 -102
         C-126 -122 -110 -138 -90 -138
         H-70
         C-66 -172 -38 -198 0 -198
         C38 -198 66 -172 70 -138
         H90
         C110 -138 126 -122 126 -102
         V-82
         C160 -58 180 -24 180 16
         C180 56 160 90 126 114
         V134
         C126 154 110 170 90 170
         H70
         C66 204 38 230 0 230
         C-38 230 -66 204 -70 170
         H-90
         C-110 170 -126 154 -126 134
         V114
         C-160 90 -180 56 -180 16
         C-180 -24 -160 -58 -126 -82
         Z"
      fill="none"
      stroke="#FFF8F0"
      stroke-width="16"
      stroke-linejoin="round"
    />
    <text
      x="0"
      y="46"
      text-anchor="middle"
      fill="#FFFDF7"
      font-family="Georgia, Times New Roman, serif"
      font-size="112"
      font-weight="500"
      letter-spacing="-1.5"
    >
      IEP
    </text>
  </g>

  <text
    x="625"
    y="250"
    text-anchor="start"
    fill="#4a3428"
    font-family="Georgia, Times New Roman, serif"
    font-size="200"
    font-weight="500"
    letter-spacing="7"
    textLength="1020"
    lengthAdjust="spacingAndGlyphs"
  >
    WE GOT YOU
  </text>
</svg>
